<?xml version="1.0" encoding="UTF-8" standalone="no"?>
<!-- Created with Inkscape (http://www.inkscape.org/) -->

<svg
   xmlns:dc="http://purl.org/dc/elements/1.1/"
   xmlns:cc="http://creativecommons.org/ns#"
   xmlns:rdf="http://www.w3.org/1999/02/22-rdf-syntax-ns#"
   xmlns:svg="http://www.w3.org/2000/svg"
   xmlns="http://www.w3.org/2000/svg"
   xmlns:sodipodi="http://sodipodi.sourceforge.net/DTD/sodipodi-0.dtd"
   xmlns:inkscape="http://www.inkscape.org/namespaces/inkscape"
   version="1.1"
   id="svg10"
   width="606.15906"
   height="161.76767"
   viewBox="0 0 606.15906 161.76767"
   sodipodi:docname="logo.svg"
   inkscape:version="0.92.2 (5c3e80d, 2017-08-06)">
  <metadata
     id="metadata16">
    <rdf:RDF>
      <cc:Work
         rdf:about="">
        <dc:format>image/svg+xml</dc:format>
        <dc:type
           rdf:resource="http://purl.org/dc/dcmitype/StillImage" />
        <dc:title></dc:title>
      </cc:Work>
    </rdf:RDF>
  </metadata>
  <defs
     id="defs14" />
  <sodipodi:namedview
     pagecolor="#ffffff"
     bordercolor="#666666"
     borderopacity="1"
     objecttolerance="10"
     gridtolerance="10"
     guidetolerance="10"
     inkscape:pageopacity="0"
     inkscape:pageshadow="2"
     inkscape:window-width="1280"
     inkscape:window-height="777"
     id="namedview12"
     showgrid="false"
     fit-margin-top="0"
     fit-margin-left="0"
     fit-margin-right="0"
     fit-margin-bottom="0"
     inkscape:zoom="0.97972973"
     inkscape:cx="307.24182"
     inkscape:cy="90.13975"
     inkscape:window-x="-8"
     inkscape:window-y="-8"
     inkscape:window-maximized="1"
     inkscape:current-layer="svg10" />
  <g
     id="g20"
     transform="translate(-16.840936,-215.18588)">
    <path
       style="fill:#c6f830"
       d="m 302.15576,375.31385 c -0.55363,-0.98928 -1.77708,-1.80211 -2.71877,-1.80627 -0.9417,-0.004 -2.1973,-0.77421 -2.79021,-1.7112 -0.84304,-1.33226 -0.33926,-3.23076 2.31113,-8.70938 l 3.38917,-7.00576 -1.67354,-6.9337 C 299.74135,345.28536 299,338.1952 299,333.1421 299,322.66347 298.47938,322 290.25687,322 c -5.92584,0 -9.33631,-1.99443 -7.40003,-4.32751 0.70475,-0.84916 2.60419,-1.83448 4.22098,-2.18958 3.43752,-0.75501 3.0887,-1.99346 -0.81837,-2.90549 C 278.23409,310.70404 257.01492,301.27371 228,286.68546 186.48332,265.81151 187.84164,266.26964 92.895493,241.11736 51.829938,230.23864 21.987831,221.18663 18.361155,218.50884 c -4.133106,-3.05171 0.07996,-3.322 13.638845,-0.87499 7.425,1.34001 23.4,4.22001 35.5,6.4 30.369612,5.47152 31.395459,5.6862 45.5752,9.53783 6.91636,1.87868 24.46636,5.47499 39,7.9918 16.74581,2.8999 30.08764,5.79587 36.4248,7.90636 19.6991,6.56046 40.96336,16.57418 58.55246,27.57339 15.00905,9.3858 23.5384,12.63361 48.44754,18.44787 20.8494,4.86665 29.13363,4.70192 54.5,-1.0837 16.99629,-3.87655 25.37586,-7.25422 41,-16.52646 23.95434,-14.21583 51.58566,-26.752 67.87484,-30.79441 7.34105,-1.82179 26.76392,-5.45353 45.65348,-8.5364 4.96557,-0.8104 14.86557,-3.2949 22,-5.52109 7.13442,-2.2262 17.02168,-4.51493 21.97168,-5.08608 4.95,-0.57115 14.625,-2.14352 21.5,-3.49417 6.875,-1.35065 20.53077,-3.80645 30.34616,-5.45734 9.81539,-1.65089 18.92789,-3.27311 20.25,-3.60494 1.69682,-0.42588 2.40384,-0.18385 2.40384,0.82288 0,1.4803 -9.51277,5.75092 -23,10.32552 -4.125,1.39912 -24.825,7.06352 -46,12.58754 -41.38078,10.79521 -77.31698,20.91345 -93.68346,26.37762 -14.90866,4.97746 -25.91019,9.86315 -57.11021,25.36221 C 377.09099,303.83546 356.15528,313 352.63438,313 c -2.94687,0 -2.73329,2.03022 0.27692,2.63226 7.89023,1.57805 4.82571,5.69389 -5.13703,6.89934 -6.54643,0.79208 -5.70444,-1.09751 -7.78388,17.4684 -0.64682,5.775 -1.39742,12.09193 -1.66799,14.03763 -0.35766,2.57183 0.2137,4.86481 2.09282,8.39894 3.2817,6.17203 3.34799,9.32276 0.22116,10.51158 -1.29998,0.49425 -2.63586,1.60811 -2.96861,2.47525 -0.75366,1.964 -3.26794,2.06092 -3.99963,0.15416 -0.30021,-0.78234 -1.58586,-1.56984 -2.85699,-1.75 -2.25554,-0.31968 -2.32562,-0.66443 -2.91268,-14.32756 -0.33085,-7.7 -1.10931,-15.24303 -1.72992,-16.76229 -1.61587,-3.95563 -5.59037,-5.57262 -8.99719,-3.66042 -4.19406,2.35407 -5.13949,5.45012 -5.16762,16.92271 -0.0374,15.22848 -0.58598,17.62704 -4.3756,19.12958 -1.72048,0.68215 -3.42911,1.40738 -3.79696,1.61162 -0.36785,0.20424 -1.12179,-0.43807 -1.67542,-1.42735 z"
       id="path34"
       inkscape:connector-curvature="0" />
    <path
       style="fill:#a9b093"
       d="m 302.15576,375.31385 c -0.55363,-0.98928 -1.77708,-1.80211 -2.71877,-1.80627 -0.9417,-0.004 -2.1973,-0.77421 -2.79021,-1.7112 -0.84304,-1.33226 -0.33926,-3.23076 2.31113,-8.70938 l 3.38917,-7.00576 -1.67354,-6.9337 C 299.74135,345.28536 299,338.1952 299,333.1421 299,322.66347 298.47938,322 290.25687,322 c -5.92584,0 -9.33631,-1.99443 -7.40003,-4.32751 0.70475,-0.84916 2.60419,-1.83448 4.22098,-2.18958 3.43752,-0.75501 3.0887,-1.99346 -0.81837,-2.90549 C 278.23409,310.70404 257.01492,301.27371 228,286.68546 186.48332,265.81151 187.84164,266.26964 92.895493,241.11736 51.829938,230.23864 21.987831,221.18663 18.361155,218.50884 c -4.133106,-3.05171 0.07996,-3.322 13.638845,-0.87499 7.425,1.34001 23.4,4.22001 35.5,6.4 30.369612,5.47152 31.395459,5.6862 45.5752,9.53783 6.91636,1.87868 24.46636,5.47499 39,7.9918 16.74581,2.8999 30.08764,5.79587 36.4248,7.90636 19.6991,6.56046 40.96336,16.57418 58.55246,27.57339 15.00905,9.3858 23.5384,12.63361 48.44754,18.44787 20.8494,4.86665 29.13363,4.70192 54.5,-1.0837 16.99629,-3.87655 25.37586,-7.25422 41,-16.52646 23.95434,-14.21583 51.58566,-26.752 67.87484,-30.79441 7.34105,-1.82179 26.76392,-5.45353 45.65348,-8.5364 4.96557,-0.8104 14.86557,-3.2949 22,-5.52109 7.13442,-2.2262 17.02168,-4.51493 21.97168,-5.08608 4.95,-0.57115 14.625,-2.14352 21.5,-3.49417 6.875,-1.35065 20.53077,-3.80645 30.34616,-5.45734 9.81539,-1.65089 18.92789,-3.27311 20.25,-3.60494 1.69682,-0.42588 2.40384,-0.18385 2.40384,0.82288 0,1.4803 -9.51277,5.75092 -23,10.32552 -4.125,1.39912 -24.825,7.06352 -46,12.58754 -41.38078,10.79521 -77.31698,20.91345 -93.68346,26.37762 -14.90866,4.97746 -25.91019,9.86315 -57.11021,25.36221 C 377.09099,303.83546 356.15528,313 352.63438,313 c -2.94687,0 -2.73329,2.03022 0.27692,2.63226 7.89023,1.57805 4.82571,5.69389 -5.13703,6.89934 -6.54643,0.79208 -5.70444,-1.09751 -7.78388,17.4684 -0.64682,5.775 -1.39742,12.09193 -1.66799,14.03763 -0.35766,2.57183 0.2137,4.86481 2.09282,8.39894 3.2817,6.17203 3.34799,9.32276 0.22116,10.51158 -1.29998,0.49425 -2.63586,1.60811 -2.96861,2.47525 -0.75366,1.964 -3.26794,2.06092 -3.99963,0.15416 -0.30021,-0.78234 -1.58586,-1.56984 -2.85699,-1.75 -2.25554,-0.31968 -2.32562,-0.66443 -2.91268,-14.32756 -0.33085,-7.7 -1.10931,-15.24303 -1.72992,-16.76229 -1.61587,-3.95563 -5.59037,-5.57262 -8.99719,-3.66042 -4.19406,2.35407 -5.13949,5.45012 -5.16762,16.92271 -0.0374,15.22848 -0.58598,17.62704 -4.3756,19.12958 -1.72048,0.68215 -3.42911,1.40738 -3.79696,1.61162 -0.36785,0.20424 -1.12179,-0.43807 -1.67542,-1.42735 z m 14.09381,-43.2294 c 4.20449,-1.58209 8.66551,-0.16937 12.92936,4.09448 2.42367,2.42367 4.01649,3.39153 4.26856,2.59375 0.22118,-0.69997 0.70016,-5.07993 1.06441,-9.73323 1.01048,-12.90877 5.61411,-19.76606 14.78357,-22.02067 8.75024,-2.15154 26.28698,-9.77995 58.70453,-25.53622 35.96125,-17.47866 41.28626,-19.77275 58.39636,-25.15801 25.53565,-8.03712 26.53845,-8.8503 6.52853,-5.29409 -13.76959,2.44717 -20.43178,4.5253 -37.26174,11.62301 -17.2631,7.28038 -28.62223,13.04543 -44.24734,22.45665 -9.94972,5.99286 -15.95119,8.82223 -25.05193,11.81065 C 351.00741,301.96338 330.33102,306 319.8582,306 c -9.46298,0 -28.07846,-3.59327 -44.70769,-8.62974 -12.44539,-3.76931 -17.66697,-6.15901 -27.87678,-12.75806 -14.24298,-9.20585 -39.55249,-21.47749 -56.98882,-27.63175 -8.88292,-3.13528 -28.87211,-7.32806 -32.42841,-6.80194 -1.19521,0.17682 3.63563,2.03797 10.7352,4.13589 19.03149,5.6238 27.85448,9.37021 59.9083,25.43818 28.09479,14.08338 48.87888,23.19677 60.74554,26.63567 7.03544,2.03883 12.13167,6.33245 14.1344,11.90835 0.83037,2.31187 1.80397,8.18888 2.16356,13.06002 l 0.6538,8.85662 3.65135,-3.54708 c 2.00824,-1.9509 4.88866,-4.01267 6.40092,-4.58171 z"
       id="path32"
       inkscape:connector-curvature="0" />
    <path
       style="fill:#afd931"
       d="m 334.13559,372.39824 c -0.92856,-2.03796 -1.47978,-2.35748 -2.54373,-1.47448 -2.06827,1.71652 -2.58866,-0.72165 -2.61572,-12.25555 C 328.96302,353.0757 328.53523,346.7 328.0255,344.5 c -1.67888,-7.24596 -8.28136,-9.76448 -13.60149,-5.18829 -2.35747,2.0278 -2.78642,3.348 -3.49284,10.75 -0.44293,4.64106 -0.83364,11.47579 -0.86825,15.18829 -0.0542,5.81003 -0.31358,6.75 -1.86292,6.75 -0.99,0 -2.30305,0.50305 -2.9179,1.1179 -0.82386,0.82386 -1.44368,0.59623 -2.35652,-0.86545 -0.76168,-1.21965 -1.94846,-1.79772 -3.0821,-1.50127 -2.57918,0.67447 -2.37169,-1.77529 0.65652,-7.75118 2.85752,-5.63905 3.00459,-8.1152 0.98,-16.5 -0.79682,-3.3 -1.45579,-9.92167 -1.46438,-14.71482 C 299.99753,321.69426 299.4293,321 291.18819,321 c -3.17409,0 -5.38885,-0.53685 -6.18819,-1.5 -0.68469,-0.825 -1.07729,-1.53621 -0.87244,-1.58048 5.43842,-1.17512 9.29603,-2.6373 9.02159,-3.41952 -0.19297,-0.55 -5.14297,-2.63442 -11,-4.63205 -15.16102,-5.1709 -21.61328,-8.1083 -55.49775,-25.26546 C 187.74029,264.90013 186.72798,264.56658 80.895713,236.57678 52.936038,229.1822 28.970919,221.9688 26.02896,220.06212 21.930239,217.40575 24.843941,217.80225 77,226.99819 c 6.875,1.21217 21.381768,4.40564 32.23726,7.09659 10.8555,2.69096 23.6805,5.53962 28.5,6.33036 28.42489,4.66369 44.00667,7.90174 52.83816,10.98031 18.79401,6.5514 41.18488,17.34507 56.92458,27.44088 11.77931,7.55552 20.83983,11.12031 41.33374,16.26243 23.7294,5.95393 32.088,6.333 52.66626,2.38842 21.70877,-4.16128 33.09321,-8.28265 48.5,-17.55785 15.79188,-9.50704 36.6873,-19.84713 53.26181,-26.35658 12.08573,-4.74654 32.86294,-9.45529 57.73819,-13.08526 6.325,-0.92299 15.55,-2.95451 20.5,-4.5145 16.31173,-5.14064 19.88767,-6.00749 28.99026,-7.02754 4.95536,-0.55531 14.40974,-2.14498 21.00974,-3.53259 10.98087,-2.30867 36.09051,-6.40065 39.37244,-6.41631 1.05767,-0.005 1.10815,0.31191 0.22011,1.38194 -1.79645,2.16459 -19.91725,7.7731 -52.09255,16.12299 -59.36045,15.40479 -94.11525,25.42916 -111.41423,32.13535 -4.99717,1.93722 -24.61077,11.08948 -43.58577,20.33834 -18.975,9.24887 -38.55,18.25315 -43.5,20.00952 -12.72176,4.51396 -13.5,4.85319 -13.5,5.88453 0,0.50716 1.6529,1.313 3.67311,1.79077 7.0822,1.6749 4.47929,4.28731 -4.30067,4.31636 -2.27015,0.008 -4.57178,0.57615 -5.11472,1.26365 -0.54294,0.6875 -1.28358,5.65816 -1.64585,11.04592 -0.36228,5.38776 -1.32,12.93967 -2.12827,16.78204 l -1.46957,6.98612 2.99298,5.60873 c 1.64615,3.0848 2.99299,6.22038 2.99299,6.96796 0,1.59185 -1.60286,1.81083 -2.51008,0.34292 -1.00341,-1.62355 -2.48992,-0.086 -2.48992,2.57533 0,3.18971 -1.37294,3.11264 -2.86441,-0.16078 z m -17.88602,-40.31379 c 4.20449,-1.58209 8.66551,-0.16937 12.92936,4.09448 2.42367,2.42367 4.01649,3.39153 4.26856,2.59375 0.22118,-0.69997 0.70016,-5.07993 1.06441,-9.73323 1.01048,-12.90877 5.61411,-19.76606 14.78357,-22.02067 8.75024,-2.15154 26.28698,-9.77995 58.70453,-25.53622 35.96125,-17.47866 41.28626,-19.77275 58.39636,-25.15801 25.53565,-8.03712 26.53845,-8.8503 6.52853,-5.29409 -13.76959,2.44717 -20.43178,4.5253 -37.26174,11.62301 -17.2631,7.28038 -28.62223,13.04543 -44.24734,22.45665 -9.94972,5.99286 -15.95119,8.82223 -25.05193,11.81065 C 351.00741,301.96338 330.33102,306 319.8582,306 c -9.46298,0 -28.07846,-3.59327 -44.70769,-8.62974 -12.44539,-3.76931 -17.66697,-6.15901 -27.87678,-12.75806 -14.24298,-9.20585 -39.55249,-21.47749 -56.98882,-27.63175 -8.88292,-3.13528 -28.87211,-7.32806 -32.42841,-6.80194 -1.19521,0.17682 3.63563,2.03797 10.7352,4.13589 19.03149,5.6238 27.85448,9.37021 59.9083,25.43818 28.09479,14.08338 48.87888,23.19677 60.74554,26.63567 7.03544,2.03883 12.13167,6.33245 14.1344,11.90835 0.83037,2.31187 1.80397,8.18888 2.16356,13.06002 l 0.6538,8.85662 3.65135,-3.54708 c 2.00824,-1.9509 4.88866,-4.01267 6.40092,-4.58171 z"
       id="path30"
       inkscape:connector-curvature="0" />
    <path
       style="fill:#8b956c"
       d="m 334.13559,372.39824 c -0.92856,-2.03796 -1.47978,-2.35748 -2.54373,-1.47448 -2.06827,1.71652 -2.58866,-0.72165 -2.61572,-12.25555 C 328.96302,353.0757 328.53523,346.7 328.0255,344.5 c -1.67888,-7.24596 -8.28136,-9.76448 -13.60149,-5.18829 -2.35747,2.0278 -2.78642,3.348 -3.49284,10.75 -0.44293,4.64106 -0.83364,11.47579 -0.86825,15.18829 -0.0542,5.81003 -0.31358,6.75 -1.86292,6.75 -0.99,0 -2.30305,0.50305 -2.9179,1.1179 -0.82386,0.82386 -1.44368,0.59623 -2.35652,-0.86545 -0.76168,-1.21965 -1.94846,-1.79772 -3.0821,-1.50127 -2.57918,0.67447 -2.37169,-1.77529 0.65652,-7.75118 2.85752,-5.63905 3.00459,-8.1152 0.98,-16.5 -0.79682,-3.3 -1.45579,-9.92167 -1.46438,-14.71482 C 299.99753,321.69426 299.4293,321 291.18819,321 c -3.17409,0 -5.38885,-0.53685 -6.18819,-1.5 -0.68469,-0.825 -1.07729,-1.53621 -0.87244,-1.58048 5.43842,-1.17512 9.29603,-2.6373 9.02159,-3.41952 -0.19297,-0.55 -5.14297,-2.63442 -11,-4.63205 -15.16102,-5.1709 -21.61328,-8.1083 -55.49775,-25.26546 C 187.74029,264.90013 186.72798,264.56658 80.895713,236.57678 52.936038,229.1822 28.970919,221.9688 26.02896,220.06212 21.930239,217.40575 24.843941,217.80225 77,226.99819 c 6.875,1.21217 21.381768,4.40564 32.23726,7.09659 10.8555,2.69096 23.6805,5.53962 28.5,6.33036 28.42489,4.66369 44.00667,7.90174 52.83816,10.98031 18.79401,6.5514 41.18488,17.34507 56.92458,27.44088 11.77931,7.55552 20.83983,11.12031 41.33374,16.26243 23.7294,5.95393 32.088,6.333 52.66626,2.38842 21.70877,-4.16128 33.09321,-8.28265 48.5,-17.55785 15.79188,-9.50704 36.6873,-19.84713 53.26181,-26.35658 12.08573,-4.74654 32.86294,-9.45529 57.73819,-13.08526 6.325,-0.92299 15.55,-2.95451 20.5,-4.5145 16.31173,-5.14064 19.88767,-6.00749 28.99026,-7.02754 4.95536,-0.55531 14.40974,-2.14498 21.00974,-3.53259 10.98087,-2.30867 36.09051,-6.40065 39.37244,-6.41631 1.05767,-0.005 1.10815,0.31191 0.22011,1.38194 -1.79645,2.16459 -19.91725,7.7731 -52.09255,16.12299 -59.36045,15.40479 -94.11525,25.42916 -111.41423,32.13535 -4.99717,1.93722 -24.61077,11.08948 -43.58577,20.33834 -18.975,9.24887 -38.55,18.25315 -43.5,20.00952 -12.72176,4.51396 -13.5,4.85319 -13.5,5.88453 0,0.50716 1.6529,1.313 3.67311,1.79077 7.0822,1.6749 4.47929,4.28731 -4.30067,4.31636 -2.27015,0.008 -4.57178,0.57615 -5.11472,1.26365 -0.54294,0.6875 -1.28358,5.65816 -1.64585,11.04592 -0.36228,5.38776 -1.32,12.93967 -2.12827,16.78204 l -1.46957,6.98612 2.99298,5.60873 c 1.64615,3.0848 2.99299,6.22038 2.99299,6.96796 0,1.59185 -1.60286,1.81083 -2.51008,0.34292 -1.00341,-1.62355 -2.48992,-0.086 -2.48992,2.57533 0,3.18971 -1.37294,3.11264 -2.86441,-0.16078 z M 335.43552,331.5 c 1.1432,-15.93403 4.99868,-21.23297 17.70996,-24.34049 7.79534,-1.90571 28.98922,-11.32436 57.35452,-25.48858 32.21479,-16.08646 42.70251,-20.29901 73,-29.32156 16.10947,-4.79738 22.06151,-6.94063 19.86741,-7.15397 -5.19979,-0.50561 -42.80751,6.66322 -52.02798,9.91765 -18.07049,6.37809 -44.68291,18.8137 -56.33943,26.32662 -17.59896,11.34298 -31.58224,16.59092 -56.49051,21.20093 -10.99138,2.03428 -15.84067,2.47321 -22.50949,2.03743 -9.77802,-0.63894 -30.03204,-5.05277 -44.36047,-9.66718 -9.24171,-2.97626 -13.63839,-5.24163 -31.13953,-16.04451 -12.61293,-7.78555 -42.4977,-21.21221 -56.5,-25.38438 -7.04287,-2.09852 -45.6693,-8.77553 -48.41716,-8.36945 -1.14556,0.16929 3.09216,1.78893 9.41716,3.5992 42.74393,12.23368 49.47533,14.84509 85.00499,32.97722 26.16753,13.35429 40.90854,19.92732 54.8955,24.47798 15.31059,4.98131 18.47769,9.29144 19.52449,26.57104 0.31113,5.13587 0.84508,9.79 1.18655,10.34252 0.34148,0.55251 1.72049,-0.83943 3.06448,-3.0932 5.78819,-9.70639 17.26178,-9.12272 22.81417,1.16056 2.53356,4.69228 2.99027,3.56388 3.94534,-9.74783 z"
       id="path28"
       inkscape:connector-curvature="0" />
    <path
       style="fill:#8dad2b"
       d="m 304,368.29751 c 0,-1.11566 -0.65771,-1.34925 -2.49827,-0.8873 l -2.49826,0.62702 2.70441,-5.51419 2.70441,-5.51418 -1.71078,-8.25443 c -0.94093,-4.53994 -1.7087,-11.88092 -1.70615,-16.3133 0.006,-10.28743 -0.89392,-11.60232 -8.36396,-12.22179 -6.89232,-0.57157 -8.18323,-1.94756 -2.6563,-2.83135 7.64469,-1.22243 6.16521,-4.14805 -3.4751,-6.87189 -10.98316,-3.10325 -27.75143,-10.5165 -52.32106,-23.13112 C 190.10626,264.75704 189.26415,264.46554 99,240.59253 52.029352,228.16976 37.468462,223.99697 34.439677,222.09118 31.631448,220.32416 41.098751,221.28174 58,224.47421 c 7.425,1.4025 18.9,3.47527 25.5,4.60614 6.6,1.13087 19.70651,4.05651 29.12557,6.50142 9.41906,2.44492 27.86906,6.24356 41,8.44144 13.13094,2.19788 27.92443,5.29317 32.87443,6.87843 18.65842,5.97546 41.26411,16.75968 63.73479,30.40519 11.59806,7.04302 18.61611,9.70303 40.26521,15.26148 17.94936,4.60853 31.19998,5.46811 45.26193,2.93618 25.60108,-4.60962 38.53521,-9.09986 55.41877,-19.23931 17.24719,-10.35782 31.83565,-17.62262 49.80652,-24.80278 15.0288,-6.00467 31.93224,-10.00591 59.01278,-13.969 6.325,-0.92562 16.45,-3.22837 22.5,-5.11722 11.46145,-3.57832 19.49692,-5.34441 35.5,-7.80242 5.225,-0.80254 15.575,-2.627 23,-4.05436 17.2879,-3.32337 25.5587,-4.23241 24.61497,-2.70542 -0.99274,1.60628 -9.08925,3.98259 -52.11497,15.29566 -93.73745,24.64707 -104.21192,28.25744 -153.5,52.90888 -23.5171,11.76208 -34.57355,16.63819 -49,21.60997 -6.53811,2.25323 -7.04168,4.22981 -1.5,5.88765 4.53374,1.3563 3.54563,2.08131 -3.7994,2.78773 -2.63967,0.25388 -5.03511,0.69731 -5.32321,0.9854 -0.28809,0.2881 -0.95224,5.40337 -1.47589,11.36727 -0.52364,5.9639 -1.3907,13.00311 -1.92679,15.64268 -1.25489,6.17874 -1.24403,11.4163 0.0253,12.20078 2.24926,1.39012 0.94236,4.18213 -2.44409,5.22146 -1.89425,0.58136 -3.69425,0.80686 -4,0.50111 -0.30575,-0.30574 -0.59212,-4.4184 -0.63639,-9.13924 -0.15002,-16.00135 -3.79914,-22.48007 -11.55464,-20.51435 -6.94818,1.76109 -8.18376,5.66728 -9.30943,29.43102 -0.0391,0.825 -1.19254,2.02016 -2.56325,2.65591 -2.06798,0.95916 -2.4922,0.89815 -2.4922,-0.3584 z M 335.43552,331.5 c 1.1432,-15.93403 4.99868,-21.23297 17.70996,-24.34049 7.79534,-1.90571 28.98922,-11.32436 57.35452,-25.48858 32.21479,-16.08646 42.70251,-20.29901 73,-29.32156 16.10947,-4.79738 22.06151,-6.94063 19.86741,-7.15397 -5.19979,-0.50561 -42.80751,6.66322 -52.02798,9.91765 -18.07049,6.37809 -44.68291,18.8137 -56.33943,26.32662 -17.59896,11.34298 -31.58224,16.59092 -56.49051,21.20093 -10.99138,2.03428 -15.84067,2.47321 -22.50949,2.03743 -9.77802,-0.63894 -30.03204,-5.05277 -44.36047,-9.66718 -9.24171,-2.97626 -13.63839,-5.24163 -31.13953,-16.04451 -12.61293,-7.78555 -42.4977,-21.21221 -56.5,-25.38438 -7.04287,-2.09852 -45.6693,-8.77553 -48.41716,-8.36945 -1.14556,0.16929 3.09216,1.78893 9.41716,3.5992 42.74393,12.23368 49.47533,14.84509 85.00499,32.97722 26.16753,13.35429 40.90854,19.92732 54.8955,24.47798 15.31059,4.98131 18.47769,9.29144 19.52449,26.57104 0.31113,5.13587 0.84508,9.79 1.18655,10.34252 0.34148,0.55251 1.72049,-0.83943 3.06448,-3.0932 5.78819,-9.70639 17.26178,-9.12272 22.81417,1.16056 2.53356,4.69228 2.99027,3.56388 3.94534,-9.74783 z"
       id="path26"
       inkscape:connector-curvature="0" />
    <path
       style="fill:#75893a"
       d="m 304,368.29751 c 0,-1.11566 -0.65771,-1.34925 -2.49827,-0.8873 l -2.49826,0.62702 2.70441,-5.51419 2.70441,-5.51418 -1.71078,-8.25443 c -0.94093,-4.53994 -1.7087,-11.88092 -1.70615,-16.3133 0.006,-10.28743 -0.89392,-11.60232 -8.36396,-12.22179 -6.89232,-0.57157 -8.18323,-1.94756 -2.6563,-2.83135 7.64469,-1.22243 6.16521,-4.14805 -3.4751,-6.87189 -10.98316,-3.10325 -27.75143,-10.5165 -52.32106,-23.13112 C 190.10626,264.75704 189.26415,264.46554 99,240.59253 52.029352,228.16976 37.468462,223.99697 34.439677,222.09118 31.631448,220.32416 41.098751,221.28174 58,224.47421 c 7.425,1.4025 18.9,3.47527 25.5,4.60614 6.6,1.13087 19.70651,4.05651 29.12557,6.50142 9.41906,2.44492 27.86906,6.24356 41,8.44144 13.13094,2.19788 27.92443,5.29317 32.87443,6.87843 18.65842,5.97546 41.26411,16.75968 63.73479,30.40519 11.59806,7.04302 18.61611,9.70303 40.26521,15.26148 17.94936,4.60853 31.19998,5.46811 45.26193,2.93618 25.60108,-4.60962 38.53521,-9.09986 55.41877,-19.23931 17.24719,-10.35782 31.83565,-17.62262 49.80652,-24.80278 15.0288,-6.00467 31.93224,-10.00591 59.01278,-13.969 6.325,-0.92562 16.45,-3.22837 22.5,-5.11722 11.46145,-3.57832 19.49692,-5.34441 35.5,-7.80242 5.225,-0.80254 15.575,-2.627 23,-4.05436 17.2879,-3.32337 25.5587,-4.23241 24.61497,-2.70542 -0.99274,1.60628 -9.08925,3.98259 -52.11497,15.29566 -93.73745,24.64707 -104.21192,28.25744 -153.5,52.90888 -23.5171,11.76208 -34.57355,16.63819 -49,21.60997 -6.53811,2.25323 -7.04168,4.22981 -1.5,5.88765 4.53374,1.3563 3.54563,2.08131 -3.7994,2.78773 -2.63967,0.25388 -5.03511,0.69731 -5.32321,0.9854 -0.28809,0.2881 -0.95224,5.40337 -1.47589,11.36727 -0.52364,5.9639 -1.3907,13.00311 -1.92679,15.64268 -1.25489,6.17874 -1.24403,11.4163 0.0253,12.20078 2.24926,1.39012 0.94236,4.18213 -2.44409,5.22146 -1.89425,0.58136 -3.69425,0.80686 -4,0.50111 -0.30575,-0.30574 -0.59212,-4.4184 -0.63639,-9.13924 -0.15002,-16.00135 -3.79914,-22.48007 -11.55464,-20.51435 -6.94818,1.76109 -8.18376,5.66728 -9.30943,29.43102 -0.0391,0.825 -1.19254,2.02016 -2.56325,2.65591 -2.06798,0.95916 -2.4922,0.89815 -2.4922,-0.3584 z m 4.40276,-24.47112 C 309.27732,338.95268 314.79735,334 319.3548,334 c 4.5567,0 11.3396,5.85411 12.21992,10.54662 0.65313,3.48146 1.74789,4.35843 2.97077,2.37977 0.36494,-0.59048 1.12178,-6.32798 1.68185,-12.75 1.5237,-17.47119 5.56681,-23.95212 16.04707,-25.72275 6.52717,-1.10276 28.46036,-10.76382 61.22559,-26.96846 38.47051,-19.02629 45.97094,-21.73791 104,-37.59911 31.57721,-8.63105 32.5,-8.91768 32.5,-10.09471 0,-1.8056 -9.80492,-0.0871 -23.61052,4.13828 -8.12205,2.48584 -21.02661,5.28069 -34.88948,7.55632 -12.1,1.98625 -25.78722,4.5373 -30.41603,5.66902 -15.4854,3.78606 -51.80488,19.78254 -66.63013,29.34643 -16.79765,10.83631 -27.02361,14.90397 -50.50622,20.09025 -22.11693,4.88466 -39.56409,3.44413 -69.44762,-5.73397 -10.38255,-3.18878 -16.48395,-6.22572 -32.42484,-16.13927 -11.32532,-7.04316 -38.25052,-19.49466 -52.36214,-24.21477 -8.97634,-3.00244 -38.48432,-8.85935 -55.7117,-11.05797 -3.02427,-0.38597 -12.40378,-2.64787 -20.84336,-5.02645 C 95.907139,233.55733 89,232.23916 89,233.8089 c 0,1.35321 0.438854,1.48443 42.5,12.70706 19.8,5.28298 40.71834,11.2038 46.48519,13.15739 12.2908,4.16364 31.95345,12.46342 35.81542,15.11801 1.48467,1.02051 13.49939,7.08814 26.69939,13.48363 23.58931,11.42918 36.42788,16.84034 47.6835,20.09751 11.28764,3.26644 14.30326,8.37741 15.28121,25.89908 0.8796,15.75957 3.06562,19.98938 4.93805,9.55481 z"
       id="path24"
       inkscape:connector-curvature="0" />
    <path
       style="fill:#667537"
       d="m 304,368.47547 c 0,-0.735 -0.90769,-1.48017 -2.0171,-1.65592 l -2.01709,-0.31955 2.01709,-3.74638 c 1.19222,-2.21431 2.0171,-5.63818 2.0171,-8.37244 0,-3.88174 0.22836,-4.43655 1.41928,-3.44817 1.12111,0.93044 1.63993,0.7986 2.46959,-0.62756 0.78766,-1.35396 1.05597,0.5702 1.07292,7.69455 0.0218,9.15945 -0.0667,9.54144 -2.46959,10.65591 -1.98964,0.92283 -2.4922,0.88644 -2.4922,-0.18044 z m 26.55591,-2.2529 c -0.30575,-0.30574 -0.56665,-4.6434 -0.57977,-9.63924 -0.0131,-4.99583 -0.42814,-10.82585 -0.92226,-12.95559 -1.09171,-4.70542 0.24193,-3.57548 1.89827,1.60833 2.72903,8.54098 4.96088,4.50305 6.01705,-10.88621 0.43172,-6.29054 1.12728,-11.75516 1.54568,-12.1436 1.12009,-1.0399 -0.3147,17.51754 -2.06969,26.7691 -1.35888,7.16344 -1.35684,8.2948 0.0197,10.9568 0.84429,1.63269 1.53508,3.36537 1.53508,3.8504 0,1.05622 -6.64861,3.23549 -7.44409,2.44001 z m -28.47305,-22.27179 c -1.30121,-6.06733 -1.42604,-14.17391 -0.18402,-11.95078 0.81593,1.46047 2.28479,17 1.60691,17 -0.18701,0 -0.82731,-2.27215 -1.42289,-5.04922 z m 7.0195,1.37595 c -0.18092,-5.60882 8.12628,-12.69527 12.00388,-10.23991 0.99833,0.63216 0.59489,0.8869 -1.42198,0.89787 -5.27621,0.0287 -8.14032,2.82227 -9.75555,9.51531 l -0.72399,3 z M 301,323.64192 C 301,321.55851 297.14597,320 291.99392,320 c -5.22199,0 -5.91587,-1.59696 -1.03313,-2.37774 7.67892,-1.22791 6.19812,-4.48323 -3.22784,-7.09595 -3.42812,-0.95022 -11.01036,-3.67403 -16.84941,-6.05292 C 259.86866,299.98583 234,287.36616 234,286.48027 c 0,-0.27798 3.0375,1.02115 6.75,2.88695 13.95249,7.01212 29.3373,13.65549 40.68521,17.56841 6.44979,2.22399 13.00537,4.95397 14.56796,6.06663 2.81082,2.00148 6.88535,10.44255 5.6412,11.6867 C 301.28997,325.04337 301,324.5722 301,323.64192 Z m 39.14924,-5.53446 c 0.53154,-1.39805 1.50291,-3.19048 2.1586,-3.98317 1.32474,-1.60152 8.45928,-5.06807 10.50118,-5.10233 2.56717,-0.0431 0.15248,1.76268 -3.19749,2.39114 -3.62226,0.67954 -6.17334,2.86886 -5.19238,4.45608 0.32523,0.52624 2.46454,1.27327 4.75402,1.66008 5.27713,0.89156 3.37217,2.0677 -4.33177,2.67446 l -5.65859,0.44567 z m 26.26835,-13.6488 c 3.25468,-1.35124 6.07778,-2.29662 6.27356,-2.10085 0.46534,0.46535 -9.62127,4.65493 -11.0745,4.59992 -0.61416,-0.0233 1.54627,-1.14783 4.80094,-2.49907 z M 311.5,302 c -0.39496,-0.63906 2.71086,-1 8.60472,-1 12.87389,0 30.43014,-3.43381 53.39528,-10.44352 1.1,-0.33576 0.0589,0.29539 -2.31362,1.40254 C 356.51638,298.80497 313.95094,305.96571 311.5,302 Z m -16.53113,-2.46884 c -15.02265,-3.27672 -36.81278,-10.39306 -32.15313,-10.50075 0.72366,-0.0167 2.21453,0.45061 3.31305,1.03852 1.09852,0.58791 10.54123,3.2352 20.9838,5.88287 10.44257,2.64767 19.26419,5.09165 19.60362,5.43107 0.85588,0.85589 0.17163,0.74803 -11.74734,-1.85171 z M 207,273 c -1.925,-1.05389 -3.14015,-1.93503 -2.70034,-1.95808 1.0597,-0.0555 6.70034,2.87723 6.70034,3.48376 0,0.65451 -0.0585,0.63219 -4,-1.52568 z m 232,-3.04668 c 14.25867,-6.86323 37.99074,-14.39865 88.24751,-28.02041 12.03324,-3.26152 22.8535,-6.45179 24.04503,-7.08947 l 2.16641,-1.15943 -2.26126,-1.009 c -2.95118,-1.31686 -11.42168,0.2427 -25.74018,4.73918 -6.02663,1.89256 -13.65751,3.90895 -16.95751,4.48088 -3.3,0.57193 -15.61225,2.67323 -27.36056,4.66957 -11.7483,1.99634 -24.53677,4.71001 -28.41882,6.03038 -3.88204,1.32037 -7.23583,2.2231 -7.45286,2.00607 -0.21703,-0.21703 3.12143,-1.55349 7.41882,-2.96991 8.6277,-2.8437 27.05579,-6.68283 46.43168,-9.67311 6.94004,-1.07106 16.39004,-3.08495 21,-4.47532 C 535.56198,232.82493 547.22517,230 551.01205,230 c 2.06558,0 12.69538,-1.7711 23.62177,-3.93579 10.9264,-2.16468 22.56618,-4.20819 25.86618,-4.54112 5.61209,-0.5662 5.83594,-0.51083 3.46241,0.85643 -3.0372,1.74957 -14.81897,5.09086 -53.46241,15.16185 -58.7554,15.31244 -87.43869,23.74771 -105.94618,31.15699 -14.742,5.9018 -15.62005,6.10021 -5.55382,1.25496 z M 562,232 c 0,-0.55 -0.64844,-1 -1.44098,-1 -0.79254,0 -1.7191,0.45 -2.05902,1 -0.33992,0.55 0.30852,1 1.44098,1 1.13246,0 2.05902,-0.45 2.05902,-1 z m -363,37.5 c -1.375,-0.78602 -2.05,-1.42913 -1.5,-1.42913 0.55,0 2.125,0.64311 3.5,1.42913 1.375,0.78602 2.05,1.42913 1.5,1.42913 -0.55,0 -2.125,-0.64311 -3.5,-1.42913 z m 215.5,-1.62591 c 7.18705,-3.83416 23.62829,-11.07913 24.09136,-10.61606 0.30883,0.30882 -26.72277,12.90943 -29.02424,13.52946 -0.58692,0.15812 1.63288,-1.15291 4.93288,-2.9134 z M 188,265.31678 c -9.87376,-3.72983 -38.96965,-11.95171 -86,-24.30177 -47.490954,-12.47102 -62.327209,-16.65348 -66,-18.60594 -2.191248,-1.16486 -2.252998,-1.33031 -0.5,-1.33966 1.1,-0.006 7.85,1.0408 15,2.32592 7.15,1.28512 18.625,3.34238 25.5,4.57169 6.875,1.22931 21.388209,4.43845 32.25157,7.13143 10.86337,2.69297 30.43837,6.71325 43.5,8.93396 13.06164,2.22071 26.22343,4.72192 29.24843,5.55825 7.58257,2.09638 19.216,6.52667 18.64298,7.09969 -0.25943,0.25943 -1.35374,-3.7e-4 -2.4318,-0.57733 -4.9486,-2.64841 -21.87863,-6.55968 -46.10562,-10.65156 -14.91282,-2.51874 -32.31289,-6.14891 -40,-8.34519 -16.129513,-4.60833 -21.436075,-5.59031 -23.616306,-4.37019 -2.572339,1.43955 -0.110899,2.74407 10.510746,5.5705 67.36796,17.92669 89.74019,24.53344 96.62873,28.53545 2.95214,1.7151 0.42843,1.13059 -6.62873,-1.53525 z M 215.5,264 c -4.4,-2.11416 -7.68743,-3.87905 -7.3054,-3.92196 1.08223,-0.12159 15.8054,6.73918 15.8054,7.36507 0,0.70239 0.81317,1.03179 -8.5,-3.44311 z M 202,258 c -0.825,-0.53316 -1.05,-0.96937 -0.5,-0.96937 0.55,0 1.675,0.43621 2.5,0.96937 0.825,0.53316 1.05,0.96937 0.5,0.96937 -0.55,0 -1.675,-0.43621 -2.5,-0.96937 z m 239,-2 c 0.825,-0.53316 1.95,-0.96937 2.5,-0.96937 0.55,0 0.325,0.43621 -0.5,0.96937 -0.825,0.53316 -1.95,0.96937 -2.5,0.96937 -0.55,0 -0.325,-0.43621 0.5,-0.96937 z"
       id="path22"
       inkscape:connector-curvature="0" />
  </g>
</svg>
