<svg version="1" xmlns="http://www.w3.org/2000/svg" width="853.333" height="853.333" viewBox="0 0 640.000000 640.000000"><path d="M16 240.4c0 3.2 20.8 9.7 91.1 28.5 81.6 21.8 80.8 21.5 124.8 43.6 31.2 15.6 36.8 18.2 51.1 23l9.5 3.2-4.8.7c-9.3 1.4-6.7 6.6 3.3 6.6 3.1 0 6.1.5 6.8 1.2.8.8 1.2 4.6 1.2 10.3 0 5 .7 11.7 1.5 14.8 2.1 7.9 1.9 8.9-1.6 15.2-3.6 6.4-3.6 10 .1 10 1.5 0 2.6.7 2.8 1.8.4 1.8 2.7 2.3 3.7.7.3-.6 1.5-1 2.5-1s2.2-.6 2.7-1.3c.4-.6 1-7.9 1.3-16 .5-14.8.5-14.9 3.3-17.3 3.3-2.9 5.7-3 8.7-.6 2.8 2.3 3.9 8 4 21.4 0 5.8.3 11.3.6 12.2.7 1.9 3.4 2.1 3.4.3.1-.6.8.1 1.6 1.6 1.7 3.2 3.7 3.1 4.2-.1.2-1.5 1-2.1 2.5-1.9 3.4.3 3.4-4.4.1-10.8-2.8-5.7-2.8-5.7-.4-19 .5-2.8.9-7.3.9-10.1.1-2.8.4-6.4.7-8 .5-2.7.9-2.9 5.3-3 5.7-.1 11.1-2.1 11.1-4.1 0-1.5-.7-1.8-6.5-2.8l-4-.7 9.5-3.2c12.9-4.4 20.2-7.7 51-23.1 14.6-7.3 31.7-15.3 38-17.8 18.4-7.3 53.3-17.5 115.5-33.6 31.6-8.2 46.6-12.8 57.4-17.6 5.9-2.7 7.7-4.5 4.5-4.5-.9 0-8 1.2-15.8 2.6-7.7 1.4-22.4 4.1-32.6 6-10.2 1.8-22.4 3.8-27.2 4.4-4.8.6-14.2 2.8-21 5-6.8 2.1-15.4 4.4-19.3 5-17.4 2.9-40.6 7.2-47 8.6-15.4 3.6-46.6 17.7-70.5 31.9-17.7 10.4-27.2 13.7-54.8 18.9-16.3 3.1-30.4 1.5-58.2-6.6-11.5-3.4-18.4-6.5-29.9-13.7-17.7-11.1-39-21.1-58.6-27.6-6.2-2.1-19.2-4.9-34-7.4-13.2-2.3-33-6.4-44-9.1-11-2.7-30.3-6.7-43-9-12.6-2.2-28.9-5.2-36.1-6.5-15.3-2.9-15.4-2.9-15.4-1.1z"/></svg>