<?xml version="1.0" encoding="UTF-8" standalone="no"?>
<!-- Created with Inkscape (http://www.inkscape.org/) -->

<svg
   xmlns:dc="http://purl.org/dc/elements/1.1/"
   xmlns:cc="http://creativecommons.org/ns#"
   xmlns:rdf="http://www.w3.org/1999/02/22-rdf-syntax-ns#"
   xmlns:svg="http://www.w3.org/2000/svg"
   xmlns="http://www.w3.org/2000/svg"
   xmlns:sodipodi="http://sodipodi.sourceforge.net/DTD/sodipodi-0.dtd"
   xmlns:inkscape="http://www.inkscape.org/namespaces/inkscape"
   version="1.1"
   id="svg10"
   width="175.67039"
   height="170.50458"
   viewBox="0 0 175.67039 170.50458"
   sodipodi:docname="email.svg"
   inkscape:version="0.92.2 (5c3e80d, 2017-08-06)">
  <metadata
     id="metadata16">
    <rdf:RDF>
      <cc:Work
         rdf:about="">
        <dc:format>image/svg+xml</dc:format>
        <dc:type
           rdf:resource="http://purl.org/dc/dcmitype/StillImage" />
        <dc:title></dc:title>
      </cc:Work>
    </rdf:RDF>
  </metadata>
  <defs
     id="defs14" />
  <sodipodi:namedview
     pagecolor="#ffffff"
     bordercolor="#666666"
     borderopacity="1"
     objecttolerance="10"
     gridtolerance="10"
     guidetolerance="10"
     inkscape:pageopacity="0"
     inkscape:pageshadow="2"
     inkscape:window-width="1366"
     inkscape:window-height="745"
     id="namedview12"
     showgrid="false"
     fit-margin-top="0"
     fit-margin-left="0"
     fit-margin-right="0"
     fit-margin-bottom="0"
     inkscape:zoom="2.25"
     inkscape:cx="80.118846"
     inkscape:cy="62.512622"
     inkscape:window-x="-8"
     inkscape:window-y="-8"
     inkscape:window-maximized="1"
     inkscape:current-layer="svg10" />
  <g
     id="g20"
     transform="matrix(0.68590479,0,0,0.66645548,0.08151921,-0.00536005)">
    <path
       style="fill:#adcbe8"
       d="M 105.5,254.77033 C 61.081676,248.87843 18.581968,211.83745 5.1520872,167.31125 -1.7004975,144.5918 -1.8906456,112.50049 4.6940011,90 18.136225,44.066391 60.778699,7.0290089 107.0519,1.0964207 c 10.96107,-1.40529564 30.93513,-1.40529564 41.8962,0 52.77229,6.765822 99.13379,53.1303153 105.94864,105.9554793 1.55339,12.04108 1.3704,31.69695 -0.4134,44.40434 -3.52246,25.09316 -15.24122,47.49152 -35.3884,67.6387 -20.14718,20.14718 -42.54554,31.86594 -67.6387,35.3884 -11.74938,1.64932 -34.60956,1.79208 -45.95624,0.28699 z M 97.31015,166.5 c 7.77283,-16.83801 11.15687,-25.19682 10.36523,-25.60285 -1.80301,-0.92477 -54.584977,-5.32089 -55.300019,-4.60584 -0.345692,0.34569 3.084141,7.05906 7.621852,14.91861 4.53771,7.85954 11.849139,20.51312 16.247618,28.11905 4.39848,7.60593 8.340919,13.45593 8.760976,13 C 85.425865,191.87304 90.962819,180.25 97.31015,166.5 Z m 51.62371,-3.71707 c 57.22179,-32.97406 51.58213,-29.60027 50.79535,-30.38705 -0.50084,-0.50085 -48.45852,-5.27319 -53.93117,-5.36678 -0.93608,-0.016 -3.07463,1.96601 -4.75233,4.40447 -4.28697,6.23089 -8.07554,8.58831 -15.83568,9.85367 -3.69052,0.60177 -6.85128,1.18707 -7.02391,1.30066 C 117.73676,142.88357 95,191.97835 95,192.65296 c 0,1.11625 4.151852,-1.18315 53.93386,-29.87003 z m -20.55421,-31.1682 c 1.82348,-0.7619 4.24706,-2.8994 5.38574,-4.75 2.97669,-4.83777 30.32068,-64.111954 30.00172,-65.035411 -0.21005,-0.608152 -109.971263,62.041501 -111.667475,63.737711 -0.238133,0.23813 -0.245468,0.60355 -0.0163,0.81203 0.452774,0.4119 63.015145,6.28136 69.198785,6.49206 2.08016,0.0709 5.27405,-0.49449 7.09753,-1.25639 z M 205,122.35026 c 0,-1.53777 -32.29253,-56.392065 -32.86584,-55.828169 -1.23678,1.216459 -23.94545,50.985719 -23.47952,51.458699 0.5738,0.5825 43.70869,4.71198 51.09536,4.89157 2.8875,0.0702 5.25,-0.16474 5.25,-0.5221 z"
       id="path34"
       inkscape:connector-curvature="0" />
    <path
       style="fill:#8eb5dd"
       d="M 106.09673,254.38821 C 80.454237,250.09101 56.618546,237.62152 37.498513,218.50149 12.806559,193.80953 0.00804263,162.91409 0.00804263,128 0.00804263,93.085912 12.806559,62.190468 37.498513,37.498513 62.190468,12.806559 93.085912,0.00804263 128,0.00804263 c 34.91409,0 65.80953,12.79851637 90.50149,37.49047037 24.62042,24.620423 37.4821,55.581519 37.49449,90.258067 0.0127,35.63596 -12.4365,65.87012 -37.40289,90.83651 -19.64684,19.64684 -43.52435,31.99144 -69.39537,35.87721 -12.38173,1.85971 -31.7337,1.82285 -43.10099,-0.0821 z m 41.46715,-89.89203 c 29.06406,-16.77709 53.28453,-30.94459 53.82327,-31.48333 0.53873,-0.53873 0.76946,-1.18958 0.51271,-1.44632 C 201.54893,131.2156 147.92734,126 144.67035,126 c -0.334,0 -2.38499,2.40642 -4.55777,5.3476 -4.51421,6.11067 -8.61232,8.41201 -16.8012,9.43491 l -5.7513,0.71841 -12.20238,25.99954 C 98.646387,181.80021 93.120368,193.8375 93.077657,194.25 c -0.04271,0.4125 0.30937,0.75 0.782403,0.75 0.473033,0 24.63975,-13.72672 53.70382,-30.50382 z M 97.667768,167.75 c 6.822252,-14.74734 11.770562,-26.64237 11.292442,-27.14542 -0.82929,-0.87253 -46.219115,-5.48854 -54.729377,-5.56582 L 49.961666,135 l 2.269167,4.33423 c 6.698859,12.79516 31.415,54.63882 32.281307,54.65125 0.556677,0.008 6.47671,-11.79798 13.155628,-26.23548 z m 29.563182,-34.79732 c 2.23315,-0.6202 4.70879,-2.32412 6.16671,-4.24442 1.80372,-2.37577 27.75099,-56.611154 32.35025,-67.619 0.43087,-1.031235 0.0327,-1.265155 -1.48007,-0.869554 C 160.48993,61.207652 50.013738,125.48151 50.342908,126.5 c 0.179798,0.55632 15.371573,2.38288 34.240143,4.11683 40.926259,3.76095 38.078199,3.60496 42.647899,2.33585 z M 205.96982,122.75 c -0.0427,-1.76994 -32.2572,-57.043945 -33.46982,-57.42796 -1.39196,-0.440809 -25.50032,51.95242 -24.43,53.09223 0.84734,0.90234 42.49496,5.21993 52.68,5.46131 3.61385,0.0856 5.24059,-0.26514 5.21982,-1.12558 z"
       id="path32"
       inkscape:connector-curvature="0" />
    <path
       style="fill:#619bd5"
       d="M 111.5,255.07688 C 81.27717,250.18341 55.801245,237.12168 35.948084,216.34077 19.246109,198.8583 9.8152313,181.51782 3.4027812,156.5 0.83661304,146.48824 0.58331312,143.92781 0.58331312,128 c 0,-15.91104 0.25536624,-18.49878 2.81246918,-28.5 C 10.135623,73.139446 21.408048,53.384453 39.659232,35.948084 57.141705,19.246109 74.482177,9.8152313 99.5,3.4027812 109.51176,0.83661304 112.07219,0.58331312 128,0.58331312 c 15.91104,0 18.49878,0.25536624 28.5,2.81246918 26.36055,6.7398407 46.11555,18.0122657 63.55192,36.2634497 16.70874,17.489554 26.15187,34.856888 32.53718,59.840768 2.5283,9.89248 2.81509,12.71162 2.84849,28 0.0283,12.94125 -0.4055,19.02937 -1.81683,25.5 -11.07602,50.78076 -48.27672,88.55272 -98.62076,100.13517 -9.46292,2.1771 -35.00472,3.3172 -43.5,1.94171 z m 35.7734,-89.73661 c 29.27463,-16.86285 53.87481,-31.25214 54.66708,-31.97619 0.79226,-0.72405 1.1083,-1.64863 0.70232,-2.05462 -0.76897,-0.76896 -46.65981,-5.17405 -54.79899,-5.26019 -4.4702,-0.0473 -4.80173,0.1533 -8.29933,5.02171 -4.25097,5.91704 -9.78646,8.87438 -16.67204,8.90706 -2.54515,0.0121 -5.05648,0.58446 -5.58072,1.27196 C 115.59763,143.47166 93,193.05712 93,194.55277 93,195.34874 93.235529,196 93.523398,196 c 0.287869,0 24.475372,-13.79688 53.750002,-30.65973 z m -49.378524,3.10326 c 6.751664,-14.60606 12.026494,-27.20606 11.721824,-28 C 109.31204,139.64959 108.43682,139 107.67177,139 c -0.76504,0 -13.716667,-1.12316 -28.781381,-2.49591 -15.064714,-1.37275 -27.727889,-2.49775 -28.140389,-2.5 -2.018524,-0.011 0.467063,4.95759 15.345407,30.6749 C 82.480311,193.0004 83.722542,195 84.932003,195 c 0.377912,0 6.211205,-11.95041 12.962873,-26.55647 z m 31.996544,-36.03846 c 1.485,-0.87721 3.66851,-3.01471 4.85224,-4.75 C 137.42372,123.72624 166,62.187788 166,60.345159 166,59.605321 165.59103,59 165.09117,59 c -1.28136,0 -113.24862,64.72888 -115.004419,66.48468 -1.246091,1.24609 -1.248032,1.51509 -0.01429,1.98146 2.196343,0.83024 61.469919,6.2794 69.773249,6.41441 5.10753,0.0831 8.16837,-0.36651 10.04571,-1.47548 z m 76.82473,-9.38251 c -0.61947,-2.36886 -32.52862,-57.788628 -33.68433,-58.502896 -0.44286,-0.273704 -1.25453,0.0599 -1.80371,0.741346 -2.39261,2.968857 -24.32834,52.03542 -23.83626,53.31774 0.29996,0.78169 1.797,1.4551 3.32677,1.49648 1.52976,0.0414 13.58138,1.10724 26.78138,2.36859 31.59795,3.0194 29.84532,2.98468 29.21615,0.57874 z"
       id="path30"
       inkscape:connector-curvature="0" />
    <path
       style="fill:#3285d9"
       d="M 114.5,254.96269 C 93.254882,251.75163 72.878662,243.99893 56,232.70473 46.371039,226.2616 29.7384,209.62896 23.295269,200 7.0027162,175.65153 -2.0306051,143.1283 0.72809701,118.75 4.395288,86.343497 16.693072,60.120753 38.406912,38.406912 60.120753,16.693072 86.343497,4.395288 118.75,0.72809701 143.1283,-2.0306051 175.65153,7.0027162 200,23.295269 209.62896,29.7384 226.2616,46.371039 232.70473,56 c 16.39627,24.503458 25.22258,56.45803 22.55643,81.66271 -5.30404,50.14226 -34.98841,90.27043 -80.19239,108.40633 -20.40954,8.18834 -43.1464,11.52692 -60.56877,8.89365 z M 95.315741,195.8684 C 100.28163,193.29573 203.57656,133.66638 204.45,132.86817 c 0.5991,-0.54749 0.58823,-1.22994 -0.0294,-1.84759 C 203.55613,130.15613 153.60546,125 146.09543,125 c -2.3402,0 -3.60263,0.96712 -6.46719,4.95438 -4.72486,6.57667 -7.43094,8.17995 -15.15595,8.97952 -3.56209,0.36869 -6.89867,1.09689 -7.41461,1.61822 C 115.45953,142.16697 92,193.36024 92,195.23287 c 0,2.07369 0.393991,2.1492 3.315741,0.63553 z m 3.263275,-27.18975 C 105.41056,153.92691 111,141.22298 111,140.4477 c 0,-0.77528 -1.0125,-1.62021 -2.25,-1.87764 -4.60533,-0.95799 -58.241644,-5.38424 -59.066624,-4.87438 -1.552404,0.95944 -0.07803,3.85918 16.910417,33.25888 10.626514,18.38991 17.327153,29.00765 18.19322,28.82871 0.754061,-0.1558 6.960462,-12.35288 13.792003,-27.10462 z m 30.936054,-35.25283 c 1.82453,-0.86579 4.4102,-3.22829 5.74593,-5.25 4.26532,-6.45583 31.91399,-67.277426 31.30492,-68.864636 -0.3622,-0.943866 -1.22212,-1.273354 -2.27192,-0.870508 -2.9187,1.120012 -112.703318,64.693344 -114.568331,66.343464 -0.975882,0.86343 -1.615796,2.05272 -1.42203,2.64287 0.213113,0.64907 13.5568,2.30993 33.774331,4.20382 39.75345,3.72392 43.10494,3.85074 47.4371,1.79499 z m 78.10294,-8.87276 c 0.76692,-1.99856 -33.73222,-61.680583 -35.45009,-61.327134 -2.1217,0.436536 -27.54614,56.226984 -25.91792,56.873314 0.27082,0.1075 56.09951,5.56983 59.03138,5.77569 0.97977,0.0688 2.03125,-0.52605 2.33663,-1.32187 z"
       id="path28"
       inkscape:connector-curvature="0" />
    <path
       style="fill:#1d78d5"
       d="m 115,255.06992 c -4.74144,-0.64133 -5.01728,-0.78707 -2,-1.05676 3.43669,-0.30717 3.44574,-0.31963 0.5,-0.68932 C 70.618464,247.94229 33.83477,221.93616 14.73948,183.5 8.75956,171.46326 3.2608296,152.60729 2.8683588,142.79216 L 2.7367175,139.5 2.0751094,143 c -0.5238866,2.77143 -0.824354,1.5745 -1.44343161,-5.75 C -0.24863098,126.83479 0.93413267,106.96407 2.0751094,113 l 0.6616081,3.5 0.1316413,-3.29216 C 3.0783909,107.95524 5.9330952,95.140398 8.7065616,87 20.944412,51.080698 51.080698,20.944412 87,8.7065616 95.140398,5.9330952 107.95524,3.0783909 113.20784,2.8683588 L 116.5,2.7367175 113,2.0751094 c -2.77143,-0.5238866 -1.5745,-0.824354 5.75,-1.44343161 10.41521,-0.88030877 30.28593,0.30245488 24.25,1.44343161 l -3.5,0.6616081 3.29216,0.1316413 C 148.04476,3.0783909 160.8596,5.9330952 169,8.7065616 204.9193,20.944412 235.05559,51.080698 247.29344,87 c 2.77346,8.140398 5.62817,20.95524 5.8382,26.20784 l 0.13164,3.29216 0.6671,-3.5 c 0.52079,-2.73239 0.84058,-1.37207 1.45812,6.20254 0.8041,9.86287 0.14584,22.86157 -1.433,28.29746 -0.47924,1.65 -1.81685,7.02717 -2.97247,11.94926 -7.4215,31.61008 -29.27401,60.86452 -58.1792,77.88576 -10.32187,6.07818 -22.81621,11.19815 -33.30383,13.64735 -4.95,1.15598 -10.38022,2.53223 -12.06716,3.05832 -4.10287,1.27953 -25.55033,1.96015 -32.43284,1.02923 z m 28.25,-1.7322 c -0.6875,-0.27741 -1.8125,-0.27741 -2.5,0 -0.6875,0.27741 -0.125,0.50439 1.25,0.50439 1.375,0 1.9375,-0.22698 1.25,-0.50439 z M 85.753027,195.75 C 87.438306,193.639 111,142.09319 111,140.5173 c 0,-1.98971 -0.62294,-2.08961 -31,-4.97129 -14.575,-1.38264 -27.625,-2.63361 -29,-2.77995 -1.851671,-0.19706 -2.571688,0.2526 -2.776435,1.73394 -0.213273,1.54302 24.548063,46.20461 33.403884,60.25 1.60673,2.54829 2.681545,2.80881 4.125578,1 z m 62.910053,-30.36204 c 30.16031,-17.38662 55.26442,-32.01162 55.78692,-32.5 0.59795,-0.5589 0.56274,-1.27522 -0.095,-1.93299 -0.92632,-0.92632 -49.85223,-5.93965 -58.07343,-5.95066 -2.73295,-0.004 -3.81438,0.80237 -7.16896,5.34329 -4.62874,6.2657 -9.01223,8.6524 -15.89126,8.6524 -3.0744,0 -5.42599,0.54168 -6.15264,1.41725 -2.04404,2.46291 -25.984854,54.90937 -25.455829,55.76535 0.277851,0.44957 0.889513,0.8174 1.35925,0.8174 0.469736,0 25.530679,-14.22542 55.690979,-31.61204 z m -19.22413,-31.92601 c 1.78266,-0.84593 4.20502,-2.8417 5.38303,-4.43503 2.77948,-3.75945 32.34533,-66.91481 32.53406,-69.495712 0.0792,-1.082835 -0.53104,-2.1046 -1.35604,-2.270588 -2.47485,-0.497934 -118.414731,66.93884 -118.834914,69.12068 -0.460219,2.38972 1.622087,3.74722 4.834914,3.15197 1.375,-0.25474 16,0.8134 32.5,2.37366 36.04846,3.40877 40.69371,3.56951 44.93895,1.55502 z m 78.19311,-8.94549 c 0.32919,-0.85787 -5.45137,-11.92875 -13.7062,-26.250005 C 186.07435,84.644905 178.36652,70.9125 176.79736,67.75 c -2.93988,-5.92506 -3.83246,-6.64819 -5.5545,-4.5 -0.55112,0.6875 -6.45622,13.106742 -13.12244,27.598315 -10.60456,23.053015 -12.92579,28.776345 -11.87042,29.268195 0.28105,0.13099 56.25454,5.60739 59.03138,5.77559 0.97977,0.0593 2.03757,-0.5597 2.35068,-1.37564 z"
       id="path26"
       inkscape:connector-curvature="0" />
    <path
       style="fill:#2c6fb2"
       d="M 115.2831,225.62941 C 96.232863,207.3373 85.381234,196.22799 85.910913,195.55976 87.497458,193.55822 111,141.99645 111,140.5173 c 0,-2.00568 -0.98681,-2.16012 -29,-4.53844 -13.475,-1.14403 -25.462864,-2.2784 -26.639699,-2.52082 -1.908826,-0.39322 -3.976299,-3.17538 -3.048868,-4.10281 0.197181,-0.19718 16.132053,1.05183 35.410827,2.77557 19.30756,1.72631 36.6728,2.83007 38.65998,2.45727 6.58893,-1.23609 9.14029,-5.26527 24.96359,-39.423282 8.16293,-17.621437 15.4258,-32.837797 16.13972,-33.814135 1.10379,-1.509526 1.54052,-1.573905 2.91857,-0.430227 1.01553,0.842813 1.28755,1.762073 0.72863,2.462253 C 169.59244,65.312257 146,117.12601 146,118.57926 c 0,1.89134 1.17953,2.07362 28.5,4.40418 13.2,1.12602 25.91585,2.29347 28.25744,2.59432 3.26609,0.41964 4.395,0.18856 4.84817,-0.99239 0.35817,-0.93336 -5.56466,-12.23297 -15.04433,-28.701714 -8.59929,-14.939268 -15.50596,-27.481832 -15.34817,-27.872365 0.33016,-0.81714 77.09602,72.447559 77.65878,74.116889 0.20454,0.60673 -0.10742,2.7386 -0.69325,4.73748 -0.58582,1.99889 -2.01724,7.66151 -3.18094,12.5836 -7.49092,31.68446 -29.29706,60.86945 -58.19387,77.88576 -10.33251,6.08445 -22.82429,11.20106 -33.30383,13.64118 -4.95,1.15259 -10.12605,2.4483 -11.50234,2.87936 -2.28045,0.71425 -5.18134,-1.78864 -32.71456,-28.22615 z m 33.37998,-60.24145 c 30.16031,-17.38662 55.26442,-32.01162 55.78692,-32.5 0.59795,-0.5589 0.56274,-1.27522 -0.095,-1.93299 -0.92632,-0.92632 -49.85223,-5.93965 -58.07343,-5.95066 -2.73295,-0.004 -3.81438,0.80237 -7.16896,5.34329 -4.62874,6.2657 -9.01223,8.6524 -15.89126,8.6524 -3.0744,0 -5.42599,0.54168 -6.15264,1.41725 -2.04404,2.46291 -25.984854,54.90937 -25.455829,55.76535 0.277851,0.44957 0.889513,0.8174 1.35925,0.8174 0.469736,0 25.530679,-14.22542 55.690979,-31.61204 z"
       id="path24"
       inkscape:connector-curvature="0" />
    <path
       style="fill:#1761ab"
       d="m 115.5,225.95797 c -15.4,-14.86481 -28.125986,-27.58511 -28.27997,-28.26733 -0.153983,-0.68222 5.358517,-13.45691 12.25,-28.38821 C 106.36151,154.37114 112,141.2284 112,140.09636 c 0,-2.6622 0.34188,-2.60381 -30,-5.12317 -22.957838,-1.90624 -31.15834,-3.14818 -29.794254,-4.51227 0.255309,-0.25531 16.23774,0.94614 35.516514,2.66988 20.93363,1.8717 36.60453,2.84288 38.90597,2.41112 7.03563,-1.31989 9.58564,-5.33359 26.27992,-41.364384 8.47448,-18.290242 15.75589,-33.469899 16.1809,-33.732572 2.43359,-1.504044 0.37797,3.738184 -11.19724,28.555036 -7.05468,15.125 -12.84134,28.49211 -12.85925,29.70469 -0.0254,1.71757 0.68551,2.32622 3.21744,2.75475 6.75823,1.14384 59.04529,5.47609 59.87836,4.96123 2.05516,-1.27016 0.0808,-5.47786 -14.0712,-29.988255 -8.21856,-14.234037 -14.75332,-26.069589 -14.52168,-26.301226 0.23164,-0.231638 9.09341,7.902248 19.69284,18.075301 10.59942,10.173053 27.06623,25.8758 36.59291,34.89498 L 253.14245,139.5 252.57706,146 c -0.8374,9.62727 -5.06489,24.1874 -10.12299,34.86516 -13.04149,27.53084 -34.06583,48.5511 -61.61167,61.59969 -9.33668,4.42283 -24.08393,8.89971 -32.8424,9.9701 l -4.5,0.54995 z M 150.05801,165.75 c 54.01198,-31.1533 58.45747,-34.07731 55.02973,-36.19577 -1.02191,-0.63158 -53.50429,-5.54376 -59.29843,-5.55014 -3.32315,-0.004 -4.03716,0.492 -6.83661,4.74591 -4.51762,6.86475 -7.15267,8.47083 -15.09177,9.19853 -3.75983,0.34463 -7.22606,1.05969 -7.70273,1.58903 C 114.75472,141.09613 90,195.12154 90,196.62597 90,197.38169 90.932542,198 92.072315,198 c 1.139773,0 27.233335,-14.5125 57.985695,-32.25 z M 254.19495,143.5 c 0.0204,-1.65 0.2445,-2.20394 0.49804,-1.23097 0.25354,0.97297 0.23687,2.32297 -0.0371,3 -0.27393,0.67703 -0.48137,-0.11903 -0.46099,-1.76903 z"
       id="path22"
       inkscape:connector-curvature="0" />
  </g>
</svg>
