<?xml version="1.0" encoding="UTF-8" standalone="no"?>
<!-- Created with Inkscape (http://www.inkscape.org/) -->

<svg
   xmlns:dc="http://purl.org/dc/elements/1.1/"
   xmlns:cc="http://creativecommons.org/ns#"
   xmlns:rdf="http://www.w3.org/1999/02/22-rdf-syntax-ns#"
   xmlns:svg="http://www.w3.org/2000/svg"
   xmlns="http://www.w3.org/2000/svg"
   xmlns:sodipodi="http://sodipodi.sourceforge.net/DTD/sodipodi-0.dtd"
   xmlns:inkscape="http://www.inkscape.org/namespaces/inkscape"
   version="1.1"
   id="svg44"
   width="462.74768"
   height="462.83801"
   viewBox="0 0 462.74768 462.83801"
   sodipodi:docname="phone.svg"
   inkscape:version="0.92.2 (5c3e80d, 2017-08-06)">
  <metadata
     id="metadata50">
    <rdf:RDF>
      <cc:Work
         rdf:about="">
        <dc:format>image/svg+xml</dc:format>
        <dc:type
           rdf:resource="http://purl.org/dc/dcmitype/StillImage" />
        <dc:title></dc:title>
      </cc:Work>
    </rdf:RDF>
  </metadata>
  <defs
     id="defs48" />
  <sodipodi:namedview
     pagecolor="#ffffff"
     bordercolor="#666666"
     borderopacity="1"
     objecttolerance="10"
     gridtolerance="10"
     guidetolerance="10"
     inkscape:pageopacity="0"
     inkscape:pageshadow="2"
     inkscape:window-width="1366"
     inkscape:window-height="745"
     id="namedview46"
     showgrid="false"
     fit-margin-top="0"
     fit-margin-left="0"
     fit-margin-right="0"
     fit-margin-bottom="0"
     inkscape:zoom="1.125"
     inkscape:cx="230.48571"
     inkscape:cy="227.72687"
     inkscape:window-x="-8"
     inkscape:window-y="-8"
     inkscape:window-maximized="1"
     inkscape:current-layer="svg44" />
  <g
     id="g54"
     transform="translate(-24.625402,-20)">
    <path
       style="fill:#cfe9f0"
       d="M 227.77473,481.48471 C 169.04095,474.37448 112.23599,442.81658 75.700301,397 48.029629,362.30035 31.676397,323.59871 25.839849,279 23.99049,264.86852 24.302542,233.95392 26.440442,219.5 37.883429,142.13625 84.315065,78.112404 154.01431,43.590433 185.99707,27.749399 219.49912,20 256,20 c 36.64318,0 69.91269,7.704706 102.09142,23.6428 69.77445,34.55922 115.89559,98.33603 127.5353,176.3572 2.0777,13.92685 2.35909,45.04964 0.53343,59 -4.91566,37.56196 -17.19868,70.64887 -37.58836,101.25221 -37.27276,55.94353 -98.47681,93.4385 -165.27732,101.25257 -15.26407,1.78554 -40.6805,1.77635 -55.51974,-0.0201 z M 349.5,363.1156 c 7.1966,-3.45776 13.57102,-9.8002 16.69938,-16.6156 4.64271,-10.11454 2.60658,-25.77084 -5.4622,-42 -6.08688,-12.24287 -34.01507,-59.79477 -45.96325,-78.25927 l -5.99158,-9.25928 -49.60225,0.25928 -49.60224,0.25927 -27.63833,46.67162 c -31.03198,52.40234 -32.4442,55.46469 -32.43236,70.32838 0.006,7.30289 0.41357,9.75427 2.16237,13 5.14016,9.54002 14.95536,15.11084 30.83046,17.49848 2.75,0.4136 40.1,0.80779 83,0.87598 l 78,0.12396 z M 245.7717,335.65535 c -33.33816,-11.36172 -43.40004,-52.27396 -19.11724,-77.73194 20.77762,-21.78316 56.57052,-18.80634 73.19391,6.08739 12.24306,18.33411 10.67584,42.17968 -3.8328,58.31678 -12.65151,14.07152 -32.56328,19.35335 -50.24387,13.32777 z M 168,232.44888 c 4.66382,-2.73316 7.74377,-8.59639 8.94316,-17.02486 C 179.5374,197.19349 187.7624,184.208 200.94729,177.52671 211.30992,172.27557 214.16266,172 258.16088,172 c 26.11645,0 42.64288,0.40009 46.0399,1.11459 12.40334,2.6088 24.00266,11.09181 29.51138,21.58278 3.80618,7.24858 4.88933,10.66225 6.7097,21.14633 1.58395,9.12243 4.1145,13.83235 9.03243,16.81137 2.62537,1.59031 5.73692,1.89067 22.54571,2.17635 22.34092,0.3797 26.08467,-0.28231 29.04409,-5.13589 5.33679,-8.75259 -1.14637,-36.74231 -12.57352,-54.28364 -5.22213,-8.01628 -17.7187,-20.09004 -25.54518,-24.6809 -8.34212,-4.89332 -19.48218,-9.15412 -29.13323,-11.14276 -11.42935,-2.35506 -137.44332,-2.37128 -149.84204,-0.0193 -27.45671,5.20845 -49.34472,21.91672 -60.82771,46.433 -7.62164,16.27225 -10.99852,34.6153 -7.78368,42.28058 2.6074,6.21695 4.98352,6.75301 28.66127,6.46598 18.60473,-0.22553 20.82358,-0.43814 24,-2.29963 z"
       id="path68"
       inkscape:connector-curvature="0" />
    <path
       style="fill:#addae6"
       d="M 225,480.37505 C 183.34793,474.7451 140.15897,455.64956 108,428.64473 53.231528,382.65404 22.919566,315.1281 25.33861,244.5 26.287075,216.80796 31.208806,192.14905 40.53551,168.36033 83.675537,58.327255 200.11887,-1.3038811 314.5589,28.031757 381.30165,45.14064 438.57163,93.845953 466.95633,157.6383 c 13.7458,30.89258 19.43813,58.01468 19.48961,92.8617 0.0316,21.39278 -0.98676,32.40067 -4.53309,49 C 461.516,394.97159 382.43452,467.90827 285.69878,480.46781 270.96975,482.38013 239.47817,482.332 225,480.37505 Z m 125.15966,-116.6544 c 17.80885,-8.74558 23.65836,-26.18226 16.10127,-47.99592 -1.67205,-4.8264 -5.86381,-13.8264 -9.31502,-20 -11.39571,-20.3849 -29.63526,-51.23774 -38.62776,-65.34022 L 309.46465,216.5 259.89568,216.24076 c -46.25721,-0.24192 -49.66964,-0.14171 -51.07565,1.5 -0.82867,0.96758 -13.47997,22.04613 -28.11401,46.84121 -27.90068,47.27332 -31.18674,54.05138 -32.37531,66.77949 -1.79966,19.27208 10.97772,31.63119 35.69058,34.52224 4.11329,0.4812 41.90371,0.81672 83.97871,0.7456 L 344.5,366.5 Z M 253,336.89068 c -12.72271,-2.07141 -27.16332,-12.29046 -33.21709,-23.5064 -19.37788,-35.9018 13.37762,-78.0889 52.68213,-67.85137 15.86488,4.13228 29.29972,17.49406 33.51228,33.33004 1.68797,6.34545 1.47118,18.07102 -0.45842,24.7955 -6.48323,22.59347 -29.2766,37.01636 -52.5189,33.23223 z M 169.10212,232.74855 c 4.44214,-2.94337 7.60752,-9.52547 8.85955,-18.4226 2.61774,-18.60189 12.89418,-32.45788 28.61547,-38.58296 7.51609,-2.92829 19.21961,-3.74335 53.24522,-3.7081 36.93341,0.0383 45.39629,0.88037 54.72755,5.44573 13.16522,6.44114 21.9578,19.45499 24.88701,36.83515 1.75165,10.3932 4.73625,16.28107 9.54748,18.83478 3.08593,1.63795 6.00519,1.84945 25.52749,1.84945 24.48328,0 25.42955,-0.22226 28.09374,-6.59857 4.34841,-10.4072 -2.5013,-36.50435 -14.19344,-54.07656 -13.05547,-19.62115 -35.44568,-33.26049 -59.56473,-36.28477 -11.27795,-1.41413 -130.19661,-1.38867 -140.39693,0.0301 -35.54878,4.94438 -61.8164,28.0393 -71.887,63.20422 -4.73607,16.53761 -4.36107,27.37991 1.09543,31.672 2.45946,1.93461 3.92724,2.05362 25.32802,2.05362 21.89015,0 22.84097,-0.082 26.11514,-2.25145 z"
       id="path66"
       inkscape:connector-curvature="0" />
    <path
       style="fill:#88c9dc"
       d="M 234.46731,481.01998 C 179.87117,475.22158 130.9386,452.16113 93.462513,414.56866 59.578455,380.57937 38.431407,340.52336 29.360636,293.14908 26.18123,276.54387 24.981656,243.02688 26.952509,225.86424 37.98079,129.82745 107.89974,50.241098 201.08035,27.660461 c 20.54448,-4.978582 30.81506,-6.1238 54.91965,-6.1238 24.10459,0 34.37517,1.145218 54.91965,6.1238 81.50377,19.750966 147.21705,84.524329 168.00168,165.598699 5.94817,23.20195 6.57688,28.87564 6.50917,58.74084 -0.058,25.58584 -0.24827,28.45006 -2.73344,41.14908 -9.41126,48.09085 -30.46364,87.77818 -64.64788,121.87229 -34.5109,34.41992 -79.23683,56.86289 -128.54918,64.50456 -11.85356,1.83688 -43.67136,2.70069 -55.03269,1.49405 z M 349.69458,364.56191 c 2.85701,-1.3302 7.28479,-4.34524 9.83949,-6.70008 13.42847,-12.37793 13.95769,-30.93502 1.57227,-55.13141 C 353.9746,288.79772 333.60232,253.77155 320.25821,232.5 l -10.03715,-16 h -50.7787 -50.7787 l -27.27454,46 c -15.001,25.3 -28.47966,49.15 -29.95259,53 -3.91529,10.23395 -4.551,24.03858 -1.44002,31.27026 2.66455,6.19391 8.26459,11.54429 15.59603,14.90073 10.97237,5.02332 13.08532,5.13495 98.90746,5.22528 l 80,0.0842 5.19458,-2.41855 z m -100.43003,-29.1035 c -17.95314,-4.835 -31.32882,-19.58145 -34.22919,-37.73708 -3.91135,-24.48408 14.14777,-48.8958 38.96464,-52.67109 30.95458,-4.709 58.05435,23.48658 52.04527,54.14978 -1.89499,9.66978 -5.61911,16.5257 -12.96933,23.87592 -12.18636,12.18636 -27.9726,16.64804 -43.81139,12.38247 z M 167.69841,233.90395 c 5.73139,-2.77452 9.15052,-8.63104 10.43024,-17.86568 2.498,-18.02593 10.62499,-30.82583 23.81629,-37.51037 9.99394,-5.06431 14.40359,-5.49713 56.16857,-5.51312 39.73692,-0.0152 44.38163,0.32781 54.2047,4.00309 11.78362,4.40882 22.87938,18.4769 25.60643,32.46585 0.59145,3.03396 1.56397,8.01959 2.16116,11.0792 1.23885,6.3471 5.44214,11.92407 10.61646,14.08604 4.90123,2.04786 43.30987,1.91325 47.33047,-0.16589 7.02147,-3.63094 8.24822,-14.48594 3.59842,-31.84097 -7.82854,-29.21949 -26.1867,-50.03646 -53.0401,-60.14405 -14.5166,-5.46403 -15.08601,-5.49862 -90.40643,-5.49104 -66.0874,0.007 -70.11276,0.10964 -77.97851,1.99535 -33.12276,7.94073 -56.24656,31.05025 -64.79697,64.75698 -4.07562,16.06655 -2.80356,27.327 3.47234,30.73757 2.02025,1.09789 7.40148,1.43216 23.5528,1.46305 19.25715,0.0368 21.28115,-0.12788 25.26413,-2.05601 z"
       id="path64"
       inkscape:connector-curvature="0" />
    <path
       style="fill:#77c2d7"
       d="M 245.5,481.35364 C 187.6523,478.12031 136.77477,456.04432 96.137383,416.54453 59.316257,380.75418 36.827844,337.29958 28.319845,285.5 25.773,269.99394 25.772228,233.0143 28.318425,217.5 36.370717,168.43636 57.077302,126.46064 89.928662,92.605725 119.63588,61.991005 152.91936,41.748587 192.08669,30.475047 256.67716,11.883961 325.73192,22.194166 381.5,58.755355 436.87405,95.05822 472.8436,150.94803 483.66485,217.5 c 2.51086,15.44213 2.52944,51.42991 0.0349,67.5 -13.44481,86.6109 -72.91124,157.36174 -155.40562,184.89553 -24.75683,8.26298 -57.89888,12.84961 -82.79408,11.45811 z m 101.71249,-115.368 c 10.81389,-4.11972 19.29218,-12.80509 21.93454,-22.47026 2.56589,-9.38549 0.56947,-23.56818 -5.06758,-36.00043 -6.39024,-14.09338 -48.78347,-85.29566 -53.74297,-90.26495 l -2.24557,-2.25 -48.79546,0.0153 c -26.8375,0.008 -49.30359,0.34592 -49.92465,0.75 -1.58366,1.03037 -51.93736,86.19835 -56.02677,94.76338 -3.33603,6.98712 -6.29348,18.20767 -6.32667,24.00338 -0.029,5.05975 2.51656,13.18788 5.46056,17.43607 5.53729,7.99031 17.85798,13.53541 33.37343,15.02018 4.20676,0.40256 41.04427,0.79488 81.86114,0.87181 72.15112,0.13598 74.35935,0.0839 79.5,-1.87449 z m -94.49745,-30.02536 c -11.36622,-1.91098 -25.5655,-11.72986 -31.42719,-21.73207 -10.63339,-18.14451 -7.7002,-41.04296 7.14033,-55.74224 15.06079,-14.91743 37.65467,-17.83201 55.80003,-7.19812 6.26937,3.6741 14.40018,12.7468 17.72618,19.77962 12.68183,26.81573 -2.81053,58.34486 -31.674,64.46104 -7.41957,1.57221 -10.35327,1.64432 -17.56535,0.43177 z m -85.43292,-101.3314 c 6.57375,-2.80104 9.79002,-8.44482 11.62612,-20.40109 3.01093,-19.60638 13.40887,-32.91853 30.02936,-38.44562 6.19246,-2.05929 8.71989,-2.20337 44.83445,-2.55584 48.77541,-0.47603 56.57419,0.65614 68.28525,9.9132 8.66952,6.85286 13.87569,16.80049 16.41573,31.36616 1.7552,10.06505 4.29554,15.47986 8.75433,18.6601 3.16816,2.25969 4.01053,2.3438 26.38597,2.63465 l 23.11334,0.30043 3.06991,-2.58316 c 5.9109,-4.97369 6.579,-14.20376 2.24514,-31.01771 -7.59918,-29.48232 -28.05579,-51.67108 -56.82253,-61.63393 L 335.5,137.5 261.09041,137.21918 c -85.19903,-0.32154 -81.77409,-0.6176 -100.59041,8.69523 -21.29865,10.54142 -35.07617,26.46025 -43.09686,49.79499 -6.62047,19.26108 -6.68588,32.35057 -0.18896,37.81737 2.93142,2.46663 2.9979,2.47323 24.89466,2.47323 16.36744,0 22.77439,-0.34897 25.17328,-1.37112 z"
       id="path62"
       inkscape:connector-curvature="0" />
    <path
       style="fill:#56b3ce"
       d="M 231,479.90404 C 185.24328,474.80074 141.46891,455.7804 106.5,425.80775 93.010644,414.24572 83.352454,403.90609 72.585139,389.5 62.310237,375.75273 57.664474,368.29615 50.737125,354.43328 7.3971872,267.70231 22.678068,163.79477 89.093222,93.617987 123.06485,57.722264 167.88953,33.670575 217,24.98672 c 15.63007,-2.763754 47.6469,-3.8056 63.10155,-2.053361 26.95528,3.056174 52.90155,10.533851 76.39845,22.01792 115.19169,56.299741 162.0733,194.793591 104.76288,309.482001 -17.97945,35.98009 -46.47112,67.8707 -80.26288,89.8379 -28.36397,18.43873 -63.85145,31.30063 -97,35.15619 -14.28128,1.66108 -40.28371,1.89494 -53,0.47667 z M 350.23064,365.17016 c 6.87004,-3.38348 14.29341,-10.49247 17.1958,-16.46755 4.87148,-10.02882 4.35115,-22.90861 -1.51833,-37.58299 -5.54892,-13.87296 -51.87316,-92.2898 -56.33306,-95.35959 -0.59128,-0.40699 -23.57211,-0.63199 -51.06851,-0.5 L 208.51308,215.5 183.28552,258 c -30.07205,50.66136 -31.55637,53.3941 -34.21726,62.99624 -7.05802,25.46973 4.47881,41.78182 32.46252,45.8992 3.28307,0.48305 41.51922,0.81669 84.96922,0.74142 L 345.5,367.5 Z M 246.76195,334.12074 c -26.37508,-8.71921 -39.05143,-38.80883 -26.81823,-63.65797 8.50126,-17.26853 28.99873,-27.93437 47.57033,-24.75319 27.06377,4.63583 44.06739,30.73891 37.09102,56.94023 -3.29065,12.35879 -13.14255,23.89905 -25.23239,29.55656 -5.85415,2.73949 -7.97904,3.1792 -16.7876,3.47389 -7.8991,0.26427 -11.32882,-0.0738 -15.82313,-1.55952 z M 164.49309,235.89742 C 172.42332,233.90057 179,224.42677 179,215 c 0,-1.45035 0.72519,-5.08117 1.61152,-8.0685 4.97896,-16.78113 15.39066,-27.35281 30.92344,-31.39859 8.54865,-2.22664 85.26312,-2.25746 93.78544,-0.0377 7.92612,2.06449 13.11123,4.89297 18.90583,10.31314 7.89587,7.38566 11.86263,15.46215 13.78754,28.07198 2.00774,13.15251 6.41011,19.75492 14.7089,22.05951 2.07753,0.57694 12.32733,1.05079 22.77733,1.053 21.59015,0.005 24.63632,-0.7631 27.74845,-6.99287 4.02589,-8.05895 0.55133,-28.59686 -7.71148,-45.58204 -10.82778,-22.2578 -28.7211,-37.15374 -54.24865,-45.16123 L 332.5,136.5 H 259 185.5 l -7.89503,2.28673 c -26.49413,7.67379 -46.87185,24.74501 -57.1437,47.8715 -4.00833,9.02455 -7.49134,22.0584 -8.14688,30.48662 -0.76487,9.83386 1.69064,15.81187 7.482,18.21517 4.53808,1.88321 37.76544,2.28271 44.6967,0.5374 z"
       id="path60"
       inkscape:connector-curvature="0" />
    <path
       style="fill:#30a2c3"
       d="M 236.97811,480.00263 C 183.42856,475.15516 135.06904,453.13611 96.800517,416.17699 76.948654,397.00438 63.158804,378.12487 50.609154,352.93698 15.9174,283.30857 19.527127,199.5049 60.112169,132.3143 87.584844,86.831889 132.91108,50.767676 183.57726,34.078216 258.63396,9.3545128 339.4055,24.04797 400.55897,73.550181 c 12.04644,9.751297 29.70931,28.110449 38.81349,40.343549 51.74655,69.53079 60.2961,161.96678 22.09972,238.93752 -33.81787,68.14746 -98.7209,115.19892 -173.24373,125.59306 -13.90569,1.93951 -38.79344,2.70596 -51.25034,1.57832 z m 113.83382,-114.6912 c 7.89288,-3.73072 15.33694,-11.42064 18.03428,-18.62993 5.22,-13.95172 1.67138,-30.35279 -11.72299,-54.1815 -10.58731,-18.83492 -39.61786,-67.19085 -43.67556,-72.75 L 309.98057,215 h -50.88866 -50.88866 l -26.75411,45.19799 c -14.71476,24.85889 -28.00711,47.96141 -29.53855,51.33893 -1.53145,3.37753 -3.5325,9.83277 -4.44679,14.345 -3.59856,17.75959 2.67272,30.38134 18.5362,37.30651 10.3508,4.51861 12.15231,4.60538 97.81193,4.71116 L 345.12385,368 Z M 250.45855,334.60512 c -13.01282,-3.16139 -24.13965,-12.13419 -30.16479,-24.32524 -3.30476,-6.68673 -3.75603,-8.53075 -4.11909,-16.8317 -0.72299,-16.53063 5.02446,-29.13416 17.63852,-38.67934 8.91608,-6.74688 17.43471,-9.18531 29.82475,-8.53723 8.27531,0.43285 10.31452,0.93497 16.78552,4.13311 17.88591,8.8397 28.05813,28.54147 24.63268,47.70911 -4.60112,25.74631 -29.74389,42.56935 -54.59759,36.53129 z M 166.6849,235.93638 c 3.40454,-1.28632 8.00344,-5.4985 9.84031,-9.01283 0.74066,-1.41705 2.01904,-6.36705 2.84083,-11 2.65811,-14.98537 6.28605,-22.51828 14.58254,-30.27868 5.89491,-5.514 11.33133,-8.17276 20.82473,-10.18461 9.59771,-2.03396 78.79219,-2.04751 88.37067,-0.0173 19.93755,4.22587 31.20734,17.45407 34.86168,40.91981 1.13284,7.27434 3.55648,13.02943 6.67453,15.8491 4.6482,4.20341 8.35865,4.78814 30.3834,4.78814 23.34349,0 24.89505,-0.34701 28.55087,-6.38554 4.32964,-7.15152 1.07732,-27.97243 -7.07693,-45.30555 -11.43458,-24.30597 -32.06878,-40.9114 -58.80097,-47.32025 -7.80139,-1.87032 -11.98778,-1.97465 -79.23656,-1.97465 -80.2237,0 -78.97907,-0.10326 -96.23702,7.98409 -27.99209,13.11754 -44.94543,36.81716 -50.22781,70.21509 -1.65223,10.44627 0.95147,18.38214 7.06123,21.52207 3.09027,1.58815 43.46579,1.75879 47.5885,0.20112 z"
       id="path58"
       inkscape:connector-curvature="0" />
    <path
       style="fill:#008fb7"
       d="M 239,479.42504 C 223.86829,477.69387 216.28093,476.57081 208.5,474.9105 125.55719,457.212 59.045782,394.89133 36.097418,313.37063 29.69427,290.62439 28.549953,281.2689 28.529706,251.5 c -0.01625,-23.89312 0.242037,-28.38084 2.244614,-39 5.974042,-31.67885 17.063105,-59.91708 33.407332,-85.07156 C 100.11091,72.131722 156.72537,35.745096 223.03565,25.33153 c 15.97243,-2.508358 49.95627,-2.508358 65.9287,0 C 378.79081,39.438147 450.5392,102.02647 475.44006,188 c 6.78476,23.42526 8.04369,33.38457 8.02691,63.5 -0.0132,23.70897 -0.28864,28.46268 -2.25965,39 -12.04662,64.40279 -47.24953,117.53833 -101.15949,152.69091 -27.37499,17.85015 -56.91968,29.04098 -90.54783,34.29738 -9.54734,1.49233 -43.12768,2.78019 -50.5,1.93675 z M 351.74762,365.48987 c 12.95156,-6.4794 19.27676,-15.95964 20.0438,-30.04177 0.83155,-15.26618 -3.7316,-26.20476 -28.76241,-68.9481 -6.76377,-11.55 -16.69386,-27.975 -22.06688,-36.5 l -9.76911,-15.5 H 259.38465 207.57628 L 181.71913,258 c -14.22144,23.925 -27.38688,46.65 -29.25655,50.5 -8.37592,17.24761 -8.73287,34.90151 -0.91298,45.15392 5.08894,6.67194 16.02119,12.25244 27.9504,14.26763 2.75,0.46455 41.05204,0.89725 85.11564,0.96155 L 344.73129,369 Z M 249.10463,333.41748 c -21.28851,-5.7248 -35.46332,-27.43323 -32.09917,-49.15923 2.18366,-14.10229 11.61345,-27.03099 24.16394,-33.12994 33.76792,-16.40962 71.69983,14.23948 62.29769,50.33673 -6.28749,24.13932 -30.49859,38.3698 -54.36246,31.95244 z m -81.53389,-97.31029 c 7.8103,-3.54736 10.85135,-9.02695 13.30626,-23.97623 2.14866,-13.08438 10.63551,-25.82644 20.93556,-31.43243 9.53826,-5.19137 14.25617,-5.66765 56.30095,-5.68375 22.1514,-0.008 40.90809,0.42038 43.99567,1.00593 18.58257,3.52411 30.9401,16.81342 34.45442,37.05234 1.90905,10.99417 3.05397,14.319 6.23097,18.09465 5.13476,6.10232 8.31864,6.78588 31.72103,6.81034 23.96905,0.025 26.25235,-0.55235 29.93391,-7.56967 5.41447,-10.32035 -1.11713,-37.96663 -13.39544,-56.69879 C 380.1163,157.02257 364.70907,145.6911 343,138.36749 L 334.5,135.5 261.74813,135.21295 c -70.19763,-0.27698 -73.05224,-0.21572 -81.30698,1.74478 -34.47521,8.18784 -58.14258,31.67146 -66.94022,66.42049 -4.54357,17.94627 -3.10572,27.84363 4.73993,32.62718 2.98183,1.81805 5.04597,1.98557 24.25914,1.9689 18.26824,-0.0159 21.52954,-0.25873 25.07074,-1.86711 z"
       id="path56"
       inkscape:connector-curvature="0" />
  </g>
</svg>
